#!OML:ASF F:\VICON\USERDATA\INSTALL\rory3\rory3.ASF
:FULLY-SPECIFIED
:DEGREES
55
root -0.002346145826457424 18.402683870910717 28.413237881918775 4.201447405596811 3.3989728168064715 -4.981655053427579
lfemur -40.205812111788056 -1.9797775066341006 -17.331622481964537
ltibia 45.47016189871229
lfoot -1.950942422313405 -8.883779751179702
ltoes -15.690034674989572
rfemur 15.614899970101188 3.4152273678639373 34.15277524782092
rtibia 37.79544530436662
rfoot 25.159660129829383 0.4870159144431154
rtoes 9.960732260996037
lowerback 12.705071562352384 2.7150253132235838 6.781532363504579
upperback -2.2088859833142944 4.831974563312145 1.3622113842576964
thorax -8.89304228868532 1.9889962095168143 -4.164597011978076
lowerneck -19.08956337492662 -5.238077078341968 -2.0284725367819254
upperneck 15.073041874543232 -7.170246381730882 2.9088952963400314
head 7.954428150280959 -3.225014267700732 0.4231169152827562
lclavicle -1.6912222782384447e-15 1.8109608323229323e-15
lhumerus -72.08926895656617 -6.809226356028706 96.76830878726966
lradius 104.87140003759254
lwrist 33.750366932570614
lhand -25.01644244675842 3.775799697246972
lfingers 7.12502
lthumb 1.4955724966388515 33.75031921020678
rclavicle -1.6912222782384447e-15 1.8109608323229323e-15
rhumerus -39.26537319266099 13.882783282545564 -94.05622459830876
rradius 115.85936056771001
rwrist -10.823265012495822
rhand -15.457070084527434 39.23664325567097
rfingers 7.12502
rthumb 10.723430354889262 10.762416912566078
56
root 0.00845763220546683 18.47577272371256 29.230265909145622 4.193641453009875 3.4934105964264828 -5.006347893219484
lfemur -38.236543030095405 -1.9947135042489952 -18.102385419003834
ltibia 37.29819173456771
lfoot -0.6628416273008876 -9.956271225290239
ltoes -16.05496855164204
rfemur 15.86537974731252 4.631623010386614 34.214980296368104
rtibia 39.988359396270326
rfoot 27.815754567924543 0.10019390873041978
rtoes 14.347568036506383
lowerback 12.284114642975405 2.8614710915958295 6.779645046178845
upperback -2.381296179561721 4.98799809414617 1.171808953343878
thorax -8.753964854694372 2.0631673861593423 -4.420464205246432
lowerneck -19.031560748266646 -5.289956835274069 -2.1185000962297664
upperneck 15.416367769874789 -7.262006505867314 3.0304209417334875
head 8.062846798947989 -3.253696304876015 0.4689119638791573
lclavicle -1.9575668289246056e-15 1.6177853804334848e-15
lhumerus -73.27324213263735 -5.611499600002293 95.85282925061884
lradius 106.34164284854397
lwrist 33.292390815171196
lhand -25.107551069130363 3.2309364481501928
lfingers 7.12502
lthumb 1.4075706521648488 33.206206646572504
rclavicle -1.9575668289246056e-15 1.6177853804334848e-15
rhumerus -39.91820634915473 14.2399466857643 -94.43821342455644
rradius 115.35961992521285
rwrist -10.871560139215374
rhand -15.418504735189803 39.132481716591876
rfingers 7.12502
rthumb 10.760780165864976 10.763191011842737
57
root 0.009817667273569364 18.499784039139882 30.067775618564646 4.060259683338969 3.538278660379932 -5.091639840242006
lfemur -36.081710928422844 -1.6696165467103836 -18.761520712812082
ltibia 30.90655387552954
lfoot 0.582767213996781 -10.542128578384107
ltoes -16.45353261704897
rfemur 15.393861961417652 5.59923904263627 34.397344139368
rtibia 43.89940641305796
rfoot 28.263470727904426 -1.0557050826469299
rtoes 16.795472831963583
lowerback 12.134467403641654 2.975913701414099 6.757032398362737
upperback -2.418421357125667 5.120403925063403 1.0760935874124788
thorax -8.670242720596328 2.127984831715408 -4.534495996511432
lowerneck -19.098448581503373 -5.305043258121601 -2.209620872246962
upperneck 15.576486833944989 -7.286655825222721 3.147045679692801
head 8.135532550622425 -3.2542545970756382 0.5216218074104146
lclavicle -2.032386753427984e-15 1.5635202807042952e-15
lhumerus -73.8357500179566 -4.715274296507554 95.23441370416784
lradius 107.9094444816796
lwrist 32.76554601313664
lhand -24.946143373587997 2.5587309736446384
lfingers 7.12502
lthumb 1.5634439759209 32.529443467369006
rclavicle -2.032386753427984e-15 1.5635202807042952e-15
rhumerus -40.391060678232186 14.602013607533035 -94.81337108181124
rradius 114.70557245205201
rwrist -10.838060819156798
rhand -15.648243632180648 39.08906888383268
rfingers 7.12502
rthumb 10.539395784015786 10.66451305266477
58
root 0.008726586491871247 18.483325231303862 31.449521701136405 3.7665011459592748 3.6651414860562825 -5.131493397699339
lfemur -33.640663142724705 -1.1330041513552098 -19.317693833140382
ltibia 26.901103539010833
lfoot 1.7699735149292644 -10.85364975448284
ltoes -16.51301352109335
rfemur 14.435056861854985 6.092580874082152 34.54053817573267
rtibia 49.67559406820149
rfoot 27.46768532195164 -2.595417927529657
rtoes 17.674516040497746
lowerback 12.266491891775148 3.040864475355713 6.686396712800267
upperback -2.317101042117865 5.197744642340913 1.063056445915699
thorax -8.64248039841679 2.16964521548044 -4.459710575065334
lowerneck -19.162861292831998 -5.270981080609377 -2.2953875762068607
upperneck 15.56750780662289 -7.230041807575076 3.273547410279692
head 8.159492302051884 -3.220619411236328 0.5887804788189847
lclavicle -1.705713961347154e-15 1.800451518236161e-15
lhumerus -73.60803614118036 -4.023875501038901 94.9577313357695
lradius 109.46653588893734
lwrist 32.225779850415314
lhand -24.676492310538332 1.978461892573234
lfingers 7.12502
lthumb 1.8238667165988474 31.94386714662811
rclavicle -1.705713961347154e-15 1.800451518236161e-15
rhumerus -40.68382319411191 14.913046813015187 -95.15086209231914
rradius 113.95855704265237
rwrist -10.662891205049075
rhand -15.9782409051261 39.072304887854735
rfingers 7.12502
rthumb 10.221266477989726 10.484078926895592
